<svg width="71" height="82" viewBox="0 0 71 82" fill="none" xmlns="http://www.w3.org/2000/svg">
<path d="M70.016 20.3556L36.516 0.599162C35.8891 0.229471 35.1109 0.22947 34.484 0.599161L0.98403 20.3556C0.374244 20.7152 0 21.3704 0 22.0783V59.8448C0 60.5527 0.374243 61.2079 0.984029 61.5675L34.5062 81.337C35.1213 81.6997 35.883 81.707 36.5049 81.3562L69.9826 62.4713C70.6112 62.1168 71 61.451 71 60.7294V22.0783C71 21.3704 70.6258 20.7152 70.016 20.3556Z" fill="white"/>
<path d="M49.1537 31.8588V60.487C49.1537 60.8017 49.3019 61.0981 49.5537 61.287L54.8358 65.2485C55.495 65.743 56.4358 65.2726 56.4358 64.4485V22.4002C56.4358 22.0554 56.2581 21.7349 55.9658 21.5522L49.6837 17.6259C49.3594 17.4233 48.948 17.4233 48.6237 17.6259L34.5896 26.3972" stroke="black" stroke-width="3" stroke-linecap="round"/>
<path d="M20.9358 59.1666V35.0788C20.9358 34.7702 21.0783 34.4789 21.3219 34.2894L27.5142 29.4732C28.171 28.9623 29.1281 29.4304 29.1281 30.2625V62.8076" stroke="black" stroke-width="3" stroke-linecap="round"/>
<path d="M35.5 32.7691V64.4486C35.5 65.2726 36.4408 65.743 37.1 65.2486L42.3821 61.2871C42.6339 61.0982 42.7821 60.8018 42.7821 60.4871V29.7084C42.7821 29.3496 42.9743 29.0182 43.2859 28.8402L49.1538 25.4871" stroke="black" stroke-width="3" stroke-linecap="round"/>
<path d="M22.7568 16.3845L15.4551 21.2523C14.8987 21.6233 14.5645 22.2477 14.5645 22.9164V59.9167C14.5645 60.5854 14.8987 61.2099 15.4551 61.5808L22.7568 66.4486" stroke="black" stroke-width="3" stroke-linecap="round"/>
<path d="M35.4999 17.2947L29.1281 21.3908L20.9358 26.3972" stroke="black" stroke-width="3" stroke-linecap="round"/>
</svg>
