<svg width="274" height="58" viewBox="0 0 274 58" fill="none" xmlns="http://www.w3.org/2000/svg">
<path d="M30.0768 27.3846V44.1154C30.0768 44.4301 30.225 44.7265 30.4768 44.9154L32.7845 46.6462C33.4437 47.1406 34.3845 46.6702 34.3845 45.8462V22.0158C34.3845 21.671 34.2069 21.3505 33.9145 21.1678L30.6068 19.1005C30.2825 18.8978 29.8711 18.8978 29.5468 19.1005L21.4614 24.1538" stroke="white" stroke-width="2" stroke-linecap="round"/>
<path d="M13.3848 43.5385V29.4891C13.3848 29.1805 13.5272 28.8892 13.7708 28.6997L16.617 26.4861C17.2738 25.9752 18.2309 26.4433 18.2309 27.2754V45.6923" stroke="white" stroke-width="2" stroke-linecap="round"/>
<path d="M22 27.9231V45.8462C22 46.6702 22.9408 47.1406 23.6 46.6462L25.9077 44.9154C26.1595 44.7265 26.3077 44.4301 26.3077 44.1154V26.3496C26.3077 25.9907 26.5 25.6594 26.8116 25.4813L30.0769 23.6154" stroke="white" stroke-width="2" stroke-linecap="round"/>
<path d="M42.016 20.3428L23.016 9.13762C22.3891 8.76793 21.6109 8.76793 20.984 9.13762L1.98403 20.3428C1.37424 20.7024 1 21.3576 1 22.0655V43.473C1 44.1809 1.37424 44.8361 1.98403 45.1957L21.0062 56.4139C21.6213 56.7766 22.383 56.784 23.0049 56.4332L41.9826 45.7277C42.6112 45.3732 43 44.7075 43 43.9858V22.0655C43 21.3576 42.6258 20.7024 42.016 20.3428Z" stroke="white"/>
<path d="M14.4614 18.2308L10.5058 20.8678C9.94944 21.2387 9.61523 21.8632 9.61523 22.5319V43.545C9.61523 44.2137 9.94944 44.8382 10.5058 45.2091L14.4614 47.8462" stroke="white" stroke-width="2" stroke-linecap="round"/>
<path d="M22.0002 18.7692L18.2309 21.1923L13.3848 24.1538" stroke="white" stroke-width="2" stroke-linecap="round"/>
<path d="M64.96 20C65.2267 20 65.36 20.1333 65.36 20.4V47.6C65.36 47.8667 65.2267 48 64.96 48H62.16C61.8933 48 61.76 47.8667 61.76 47.6V35.08L59.2 47.68C59.1333 47.8933 59 48 58.8 48H58.16C57.96 48 57.8267 47.8933 57.76 47.68L55.2 35.08V47.6C55.2 47.8667 55.0667 48 54.8 48H52C51.7333 48 51.6 47.8667 51.6 47.6V20.4C51.6 20.1333 51.7333 20 52 20H54.88C55.0667 20 55.1733 20.08 55.2 20.24L58.48 38.24L61.76 20.24C61.7867 20.08 61.8933 20 62.08 20H64.96ZM81.6888 47.52C81.7288 47.84 81.5954 48 81.2888 48H78.3288C78.0888 48 77.9554 47.8667 77.9288 47.6L77.5688 43.84H74.9288L74.5688 47.6C74.5421 47.8667 74.4088 48 74.1688 48H71.2088C70.9021 48 70.7688 47.84 70.8088 47.52L74.4088 20.32C74.4488 20.1067 74.5821 20 74.8088 20H77.6888C77.9154 20 78.0488 20.1067 78.0888 20.32L81.6888 47.52ZM75.2688 40.32H77.2288L76.2488 30.04L75.2688 40.32ZM94.89 20C95.1567 20 95.29 20.1333 95.29 20.4V23.2C95.29 23.4667 95.1567 23.6 94.89 23.6H92.01V47.6C92.01 47.8667 91.8767 48 91.61 48H88.81C88.5433 48 88.41 47.8667 88.41 47.6V23.6H85.53C85.2633 23.6 85.13 23.4667 85.13 23.2V20.4C85.13 20.1333 85.2633 20 85.53 20H94.89ZM107.252 27.36C106.986 27.36 106.852 27.2267 106.852 26.96V24.56C106.852 24.16 106.732 23.82 106.492 23.54C106.252 23.26 105.892 23.12 105.412 23.12C104.932 23.12 104.572 23.26 104.332 23.54C104.092 23.82 103.972 24.16 103.972 24.56V43.44C103.972 43.84 104.092 44.18 104.332 44.46C104.572 44.74 104.932 44.88 105.412 44.88C105.892 44.88 106.252 44.74 106.492 44.46C106.732 44.18 106.852 43.84 106.852 43.44V41.04C106.852 40.7733 106.986 40.64 107.252 40.64H110.052C110.319 40.64 110.452 40.7733 110.452 41.04V43.44C110.452 44.8267 109.999 46 109.092 46.96C108.186 47.92 106.959 48.4 105.412 48.4C103.866 48.4 102.639 47.92 101.732 46.96C100.826 46 100.372 44.8267 100.372 43.44V24.56C100.372 23.1733 100.826 22 101.732 21.04C102.639 20.08 103.866 19.6 105.412 19.6C106.959 19.6 108.186 20.08 109.092 21.04C109.999 22 110.452 23.1733 110.452 24.56V26.96C110.452 27.2267 110.319 27.36 110.052 27.36H107.252ZM126.621 20C126.888 20 127.021 20.1333 127.021 20.4V47.6C127.021 47.8667 126.888 48 126.621 48H123.821C123.555 48 123.421 47.8667 123.421 47.6V35.36H120.141V47.6C120.141 47.8667 120.008 48 119.741 48H116.941C116.675 48 116.541 47.8667 116.541 47.6V20.4C116.541 20.1333 116.675 20 116.941 20H119.741C120.008 20 120.141 20.1333 120.141 20.4V31.84H123.421V20.4C123.421 20.1333 123.555 20 123.821 20H126.621ZM144.709 48C144.442 48 144.309 47.8667 144.309 47.6V20.4C144.309 20.1333 144.442 20 144.709 20H147.509C147.775 20 147.909 20.1333 147.909 20.4V47.6C147.909 47.8667 147.775 48 147.509 48H144.709ZM164.241 20C164.508 20 164.641 20.1333 164.641 20.4V47.6C164.641 47.8667 164.508 48 164.241 48H161.441C161.228 48 161.095 47.8933 161.041 47.68L157.761 32.82V47.6C157.761 47.8667 157.628 48 157.361 48H154.561C154.295 48 154.161 47.8667 154.161 47.6V20.4C154.161 20.1333 154.295 20 154.561 20H157.441C157.615 20 157.721 20.08 157.761 20.24L161.041 35.5V20.4C161.041 20.1333 161.175 20 161.441 20H164.241ZM188.649 27.36C188.382 27.36 188.249 27.2267 188.249 26.96V24.56C188.249 24.16 188.129 23.82 187.889 23.54C187.649 23.26 187.289 23.12 186.809 23.12C186.329 23.12 185.969 23.26 185.729 23.54C185.489 23.82 185.369 24.16 185.369 24.56V43.44C185.369 43.84 185.489 44.18 185.729 44.46C185.969 44.74 186.329 44.88 186.809 44.88C187.289 44.88 187.649 44.74 187.889 44.46C188.129 44.18 188.249 43.84 188.249 43.44V41.04C188.249 40.7733 188.382 40.64 188.649 40.64H191.449C191.715 40.64 191.849 40.7733 191.849 41.04V43.44C191.849 44.8267 191.395 46 190.489 46.96C189.582 47.92 188.355 48.4 186.809 48.4C185.262 48.4 184.035 47.92 183.129 46.96C182.222 46 181.769 44.8267 181.769 43.44V24.56C181.769 23.1733 182.222 22 183.129 21.04C184.035 20.08 185.262 19.6 186.809 19.6C188.355 19.6 189.582 20.08 190.489 21.04C191.395 22 191.849 23.1733 191.849 24.56V26.96C191.849 27.2267 191.715 27.36 191.449 27.36H188.649ZM208.017 20C208.284 20 208.417 20.1333 208.417 20.4V47.6C208.417 47.8667 208.284 48 208.017 48H205.217C204.951 48 204.817 47.8667 204.817 47.6V35.36H201.537V47.6C201.537 47.8667 201.404 48 201.137 48H198.337C198.071 48 197.937 47.8667 197.937 47.6V20.4C197.937 20.1333 198.071 20 198.337 20H201.137C201.404 20 201.537 20.1333 201.537 20.4V31.84H204.817V20.4C204.817 20.1333 204.951 20 205.217 20H208.017ZM225.465 47.44C225.505 47.6 225.472 47.7333 225.365 47.84C225.272 47.9467 225.145 48 224.985 48H222.265C222.065 48 221.932 47.8933 221.865 47.68L218.325 35.36H218.265V47.6C218.265 47.8667 218.132 48 217.865 48H215.065C214.798 48 214.665 47.8667 214.665 47.6V20.4C214.665 20.1333 214.798 20 215.065 20H219.705C221.252 20 222.478 20.48 223.385 21.44C224.292 22.4 224.745 23.5733 224.745 24.96V30.4C224.745 31.4 224.492 32.3133 223.985 33.14C223.492 33.9533 222.792 34.5533 221.885 34.94L225.465 47.44ZM218.265 23.52V31.84H219.705C220.185 31.84 220.545 31.7 220.785 31.42C221.025 31.14 221.145 30.8 221.145 30.4V24.96C221.145 24.56 221.025 24.22 220.785 23.94C220.545 23.66 220.185 23.52 219.705 23.52H218.265ZM231.355 48C231.088 48 230.955 47.8667 230.955 47.6V20.4C230.955 20.1333 231.088 20 231.355 20H234.155C234.422 20 234.555 20.1333 234.555 20.4V47.6C234.555 47.8667 234.422 48 234.155 48H231.355ZM247.208 32.56C247.928 33.3733 248.428 33.94 248.708 34.26C248.988 34.58 249.301 34.9733 249.648 35.44C250.008 35.9067 250.228 36.2067 250.308 36.34C250.388 36.46 250.474 36.6867 250.568 37.02C250.674 37.34 250.728 37.5867 250.728 37.76C250.728 37.92 250.728 38.2133 250.728 38.64V43.44C250.728 44.8267 250.274 46 249.368 46.96C248.461 47.92 247.234 48.4 245.688 48.4C244.141 48.4 242.914 47.92 242.008 46.96C241.101 46 240.648 44.8267 240.648 43.44V41.04C240.648 40.7733 240.781 40.64 241.048 40.64H243.848C244.114 40.64 244.248 40.7733 244.248 41.04V43.44C244.248 43.84 244.368 44.18 244.608 44.46C244.848 44.74 245.208 44.88 245.688 44.88C246.168 44.88 246.528 44.74 246.768 44.46C247.008 44.18 247.128 43.84 247.128 43.44V39.04C247.128 38.6133 247.081 38.28 246.988 38.04C246.908 37.7867 246.661 37.3933 246.248 36.86C245.834 36.3267 245.114 35.5067 244.088 34.4C242.434 32.6267 241.448 31.4867 241.128 30.98C240.808 30.46 240.648 29.68 240.648 28.64V24.56C240.648 23.1733 241.088 22 241.968 21.04C242.861 20.08 244.074 19.6 245.608 19.6C247.141 19.6 248.348 20.08 249.228 21.04C250.121 22 250.568 23.1733 250.568 24.56V26.96C250.568 27.2267 250.434 27.36 250.168 27.36H247.368C247.101 27.36 246.968 27.2267 246.968 26.96V24.56C246.968 24.1467 246.861 23.8067 246.648 23.54C246.434 23.26 246.088 23.12 245.608 23.12C245.128 23.12 244.781 23.26 244.568 23.54C244.354 23.8067 244.248 24.1467 244.248 24.56V28C244.248 28.1867 244.248 28.32 244.248 28.4C244.261 28.48 244.268 28.58 244.268 28.7C244.268 28.82 244.288 28.92 244.328 29C244.368 29.08 244.401 29.1667 244.428 29.26C244.454 29.3533 244.514 29.46 244.608 29.58C244.714 29.6867 244.801 29.8 244.868 29.92C244.948 30.0267 245.081 30.18 245.268 30.38C245.454 30.58 245.614 30.7667 245.748 30.94C245.894 31.1 246.114 31.34 246.408 31.66C246.701 31.98 246.968 32.28 247.208 32.56ZM265.589 20C265.855 20 265.989 20.1333 265.989 20.4V23.2C265.989 23.4667 265.855 23.6 265.589 23.6H262.709V47.6C262.709 47.8667 262.575 48 262.309 48H259.509C259.242 48 259.109 47.8667 259.109 47.6V23.6H256.229C255.962 23.6 255.829 23.4667 255.829 23.2V20.4C255.829 20.1333 255.962 20 256.229 20H265.589Z" fill="white"/>
</svg>
