<?xml version="1.0" standalone="no"?><svg xmlns="http://www.w3.org/2000/svg" viewBox="0 0 1440 320"><path fill="#ffbdfb" fill-opacity="1" d="M0,0L24,37.3C48,75,96,149,144,181.3C192,213,240,203,288,213.3C336,224,384,256,432,272C480,288,528,288,576,261.3C624,235,672,181,720,176C768,171,816,213,864,208C912,203,960,149,1008,154.7C1056,160,1104,224,1152,240C1200,256,1248,224,1296,213.3C1344,203,1392,213,1416,218.7L1440,224L1440,320L1416,320C1392,320,1344,320,1296,320C1248,320,1200,320,1152,320C1104,320,1056,320,1008,320C960,320,912,320,864,320C816,320,768,320,720,320C672,320,624,320,576,320C528,320,480,320,432,320C384,320,336,320,288,320C240,320,192,320,144,320C96,320,48,320,24,320L0,320Z"></path></svg>